HIERARCHY
ROOT Hips
{
     OFFSET 26.33260 94.20580 -23.89040
     CHANNELS 6 Xposition Yposition Zposition Zrotation Xrotation Yrotation
     JOINT Spine
     {
          OFFSET 0.00000 11.89050 0.00000
          CHANNELS 3 Zrotation Xrotation Yrotation
          JOINT Spine1
          {
               OFFSET 0.00000 25.65740 0.12766
               CHANNELS 3 Zrotation Xrotation Yrotation
               JOINT HEad
               {
                    OFFSET 0.00000 8.73416 0.01134
                    CHANNELS 3 Zrotation Xrotation Yrotation
                    End Site
                    {
                         OFFSET -0.29000 12.77420 2.51395
                    }
               }
               JOINT LeftShoulder1
               {
                    OFFSET 8.99000 -0.36225 -0.22000
                    CHANNELS 3 Zrotation Xrotation Yrotation
                    JOINT LeftArm
                    {
                         OFFSET 10.28270 -0.00338 0.32212
                         CHANNELS 3 Zrotation Xrotation Yrotation
                         JOINT LeftForeArm
                         {
                              OFFSET 32.76690 0.09914 -1.42434
                              CHANNELS 3 Zrotation Xrotation Yrotation
                              JOINT LeftHand
                              {
                                   OFFSET 27.56430 0.08536 1.02216
                                   CHANNELS 3 Zrotation Xrotation Yrotation
                                   End Site
                                   {
                                        OFFSET 16.74430 -0.60000 1.50291
                                   }
                              }
                         }
                    }
               }
               JOINT RightShoulder
               {
                    OFFSET -8.99000 -0.36225 -0.22000
                    CHANNELS 3 Zrotation Xrotation Yrotation
                    JOINT RightArm
                    {
                         OFFSET -10.28270 -0.00338 0.32212
                         CHANNELS 3 Zrotation Xrotation Yrotation
                         JOINT RightForeArm
                         {
                              OFFSET -32.89710 0.09914 -1.42434
                              CHANNELS 3 Zrotation Xrotation Yrotation
                              JOINT RightHand
                              {
                                   OFFSET -27.49210 0.08536 1.02216
                                   CHANNELS 3 Zrotation Xrotation Yrotation
                                   End Site
                                   {
                                        OFFSET -16.63120 -0.60000 1.50291
                                   }
                              }
                         }
                    }
               }
          }
     }
     JOINT LeftUpLeg
     {
          OFFSET 8.94580 -8.66707 0.10165
          CHANNELS 3 Zrotation Xrotation Yrotation
          JOINT LeftLeg
          {
               OFFSET 0.00000 -44.42270 1.37270
               CHANNELS 3 Zrotation Xrotation Yrotation
               JOINT LeftFoot
               {
                    OFFSET -0.25355 -42.09240 -1.46059
                    CHANNELS 3 Zrotation Xrotation Yrotation
                    JOINT LeftToes
                    {
                         OFFSET -0.04000 -4.41509 8.49910
                         CHANNELS 3 Zrotation Xrotation Yrotation
                         End Site
                         {
                              OFFSET 0.08000 -0.04745 9.77979
                         }
                    }
               }
          }
     }
     JOINT RightUpLeg
     {
          OFFSET -8.94580 -8.66707 0.10165
          CHANNELS 3 Zrotation Xrotation Yrotation
          JOINT RightLeg
          {
               OFFSET 0.00000 -44.42270 1.37270
               CHANNELS 3 Zrotation Xrotation Yrotation
               JOINT RightFoot
               {
                    OFFSET 0.25355 -42.09240 -1.46059
                    CHANNELS 3 Zrotation Xrotation Yrotation
                    JOINT RightToes
                    {
                         OFFSET 0.04000 -4.41509 8.49910
                         CHANNELS 3 Zrotation Xrotation Yrotation
                         End Site
                         {
                              OFFSET -0.08000 -0.13745 9.77979
                         }
                    }
               }
          }
     }
}
MOTION
Frames: 17
Frame Time: 0.01667
26.33260 94.20580 -23.89040 -8.32689 -6.89815 -38.84410 3.38745 5.81432 0.06686 4.41705 11.78970 0.37464 -6.01869 -1.50089 16.32130 0.00000 0.00000 0.00000 -68.32760 -34.97330 -56.48560 4.95072 15.16470 -68.58170 38.00390 10.36950 5.73757 11.63410 0.95587 3.79401 73.12570 -9.15944 77.62250 1.38804 30.74040 92.02270 -7.59563 9.14897 8.32919 23.81230 -13.98580 11.05550 -12.23230 29.90880 24.41360 0.78097 4.03492 -0.11943 -17.29360 -20.99610 -6.05575 -11.48820 -8.94462 -3.43392 3.44000 45.56920 1.92727 17.47760 -28.64490 3.05598 6.54354 24.88100 -10.49450 
26.58540 94.33920 -23.59620 -8.31392 -6.69973 -39.03820 3.28122 5.78624 0.14634 4.50872 11.71070 0.48017 -5.99546 -1.58267 16.40300 0.00000 0.00000 0.00000 -68.12630 -34.45680 -56.39770 4.85290 14.67980 -68.12140 37.94410 10.35880 5.70776 11.62860 0.96728 3.87381 73.77760 -9.13866 77.81210 1.12834 30.81690 91.96380 -7.35516 9.17616 8.31561 23.85620 -13.86630 11.02930 -12.66270 29.61960 25.00620 0.96931 4.02274 -0.13846 -17.41340 -21.04800 -6.21215 -12.30940 -9.24633 -3.67027 4.09281 45.59470 2.78266 19.11030 -27.82490 3.23108 6.74043 25.51940 -10.38220 
26.81190 94.46540 -23.33840 -8.25784 -6.52806 -39.20950 3.13455 5.75744 0.23607 4.60021 11.62650 0.59165 -5.98433 -1.71322 16.51140 0.00000 0.00000 0.00000 -67.80440 -33.84570 -56.24770 4.81789 14.13510 -67.54540 37.93620 10.34440 5.66474 11.58650 0.98199 3.98920 74.79460 -8.96819 78.11610 0.60641 30.91440 91.86580 -7.06410 9.21341 8.21913 23.84680 -13.74930 10.99410 -13.04090 29.28380 25.55570 1.17207 4.05912 -0.15969 -17.55340 -21.13340 -6.36039 -13.22630 -9.54936 -3.94278 4.69665 45.61920 3.93263 20.60150 -26.94120 3.34432 6.57188 24.96740 -10.49260 
27.00330 94.57870 -23.12090 -8.17073 -6.38199 -39.36640 2.97242 5.72769 0.33279 4.68855 11.54100 0.71319 -5.97007 -1.84585 16.61510 0.00000 0.00000 0.00000 -67.36140 -33.17960 -56.03220 4.89598 13.58760 -66.85680 38.00940 10.32730 5.61023 11.53410 0.99677 4.10939 76.06640 -8.44292 78.54310 -0.23813 30.84040 91.63980 -6.82060 9.24750 8.07603 23.80370 -13.65650 10.91800 -13.38680 28.96260 26.08670 1.37805 4.04534 -0.18048 -17.52290 -21.09320 -6.35779 -14.16440 -9.81609 -4.08822 5.25314 45.61490 5.08022 21.79800 -26.07290 3.38603 5.93411 22.95250 -10.73580 
27.15660 94.67960 -22.94840 -8.09117 -6.25365 -39.52750 2.85200 5.69463 0.44116 4.78770 11.45630 0.87086 -5.95148 -1.91555 16.61180 0.00000 0.00000 0.00000 -66.78250 -32.43190 -55.76620 5.07247 13.01710 -66.00160 38.12660 10.29570 5.51104 11.49310 1.00707 4.19522 77.28130 -7.33234 79.02270 -1.28897 30.28470 91.11970 -6.85431 9.25116 7.93986 23.77330 -13.57100 10.81730 -13.69960 28.67570 26.58380 1.55264 3.95357 -0.19651 -17.27590 -20.86850 -6.19725 -15.02710 -10.00750 -3.96736 5.75539 45.58340 5.85436 22.57820 -25.34150 3.36881 4.92641 19.78160 -11.14250 
27.27270 94.77780 -22.82420 -8.06265 -6.13458 -39.71120 2.83130 5.65093 0.56845 4.91716 11.36360 1.09524 -5.95223 -1.86758 16.39580 0.00000 0.00000 0.00000 -66.01540 -31.50380 -55.46190 5.28500 12.30430 -64.88020 38.21910 10.22730 5.30315 11.47640 1.01240 4.23815 78.40650 -5.65481 79.51470 -2.14335 29.45250 90.08000 -7.58833 9.17660 7.88102 23.79760 -13.44460 10.76360 -13.94780 28.39540 26.97370 1.69944 3.82620 -0.20873 -16.89930 -20.52020 -5.95749 -15.73600 -10.09130 -3.50480 6.19684 45.55180 5.89194 22.83400 -24.86920 3.31220 3.84399 16.36810 -11.92230 
27.35660 94.87910 -22.74560 -8.11265 -6.02950 -39.91170 2.96045 5.59132 0.70783 5.09080 11.25710 1.38454 -6.00065 -1.71074 15.93100 0.00000 0.00000 0.00000 -65.03980 -30.31510 -55.13050 5.46581 11.33440 -63.44550 38.24360 10.11090 4.95403 11.47680 1.01672 4.26775 79.10010 -3.43040 79.96380 -2.35937 28.31230 88.34930 -9.41016 8.97326 8.01461 23.88720 -13.24950 10.79670 -14.10560 28.11410 27.19680 1.83734 3.69182 -0.21959 -16.46070 -20.11210 -5.67697 -16.27600 -10.03800 -2.71533 6.58900 45.55920 4.92870 22.46790 -24.71460 3.22120 3.07323 13.96770 -13.26040 
27.41070 94.97810 -22.70850 -8.23062 -5.97782 -40.10270 3.23187 5.52520 0.83882 5.30244 11.15570 1.69688 -6.10420 -1.52830 15.28370 0.00000 0.00000 0.00000 -63.93150 -28.88580 -54.79660 5.56555 10.08510 -61.75130 38.19400 9.95425 4.48598 11.45270 1.02370 4.32500 78.97170 -0.73563 80.42010 -1.62830 26.82500 85.90320 -12.44580 8.59212 8.54355 23.99500 -12.98330 10.88320 -14.17130 27.85230 27.25600 1.94622 3.54768 -0.22707 -15.96410 -19.65160 -5.35071 -16.71110 -9.81285 -1.70760 6.93179 45.61510 2.98306 21.42690 -24.76540 3.06493 2.91589 13.45190 -15.09850 
27.43200 95.05280 -22.71170 -8.37424 -6.02871 -40.27740 3.57748 5.47326 0.94686 5.53457 11.09470 1.98657 -6.25261 -1.39786 14.57220 0.00000 0.00000 0.00000 -62.82210 -27.32510 -54.49990 5.55082 8.60317 -59.88690 38.06700 9.76968 3.93218 11.33770 1.03268 4.43108 77.67370 2.30135 81.05760 -0.07492 24.99090 82.99480 -16.25130 8.01377 9.62298 24.06200 -12.66800 10.96940 -14.17670 27.66060 27.22040 1.97976 3.39017 -0.22671 -15.44870 -19.16930 -5.01115 -17.12790 -9.40936 -0.64625 7.14366 45.68980 0.51949 19.86310 -24.70270 2.80411 3.44081 14.78310 -17.04030 
27.41270 95.06940 -22.75760 -8.49608 -6.19298 -40.47230 3.91086 5.45355 1.03995 5.76931 11.09990 2.24298 -6.41967 -1.33460 13.89680 0.00000 0.00000 0.00000 -61.81110 -25.76080 -54.28000 5.42720 6.95582 -57.92020 37.84770 9.56670 3.31656 11.07670 1.03749 4.56741 75.00100 5.46410 82.11610 1.65801 23.00930 80.13360 -19.81670 7.32938 11.05160 24.07740 -12.35490 11.04490 -14.17240 27.61640 27.18750 1.92716 3.24553 -0.21836 -15.06000 -18.81020 -4.74322 -17.56740 -8.88051 0.31304 7.05814 45.73770 -1.66466 18.23450 -24.14540 2.45456 4.43609 17.19450 -18.53100 
27.34120 95.00720 -22.85570 -8.55507 -6.44312 -40.73330 4.13156 5.47048 1.14267 5.97862 11.16610 2.48591 -6.54651 -1.32023 13.32900 0.00000 0.00000 0.00000 -60.92180 -24.27810 -54.14380 5.25791 5.23414 -55.91120 37.54560 9.36019 2.67887 10.64890 1.02876 4.67999 70.99150 8.42368 83.77200 2.77864 21.36270 77.83320 -21.94700 6.82077 12.18050 24.05680 -12.08970 11.13000 -14.18510 27.73840 27.22680 1.83872 3.19811 -0.20890 -14.99600 -18.79540 -4.63471 -18.02280 -8.29919 1.06246 6.52515 45.70480 -2.81315 17.09290 -22.96980 2.10042 5.57185 19.85980 -19.34430 
27.21130 94.86070 -23.01390 -8.54254 -6.73085 -41.07690 4.19547 5.50898 1.27235 6.14335 11.25540 2.73524 -6.56660 -1.30754 12.89980 0.00000 0.00000 0.00000 -60.12980 -22.90870 -54.05060 5.10457 3.55325 -53.93090 37.21280 9.16544 2.06443 10.05780 0.99928 4.71441 66.00580 10.81060 85.99950 2.77416 20.59440 76.42160 -21.47740 6.87010 12.29160 24.03680 -11.91730 11.23300 -14.21860 28.02800 27.36720 1.75402 3.29059 -0.20284 -15.33150 -19.21590 -4.70964 -18.44620 -7.71292 1.54857 5.51652 45.54580 -2.55447 16.74310 -21.49600 1.83143 6.59802 22.21100 -19.80860 
27.02740 94.63780 -23.23740 -8.47726 -7.02244 -41.49340 4.11622 5.54912 1.42814 6.25316 11.32880 2.99411 -6.45013 -1.22215 12.59210 0.00000 0.00000 0.00000 -59.40310 -21.66970 -53.94220 4.97416 2.01257 -52.05340 36.89140 8.98567 1.48580 9.31876 0.94862 4.65126 60.65500 12.39060 88.53670 1.53733 20.90960 76.04650 -17.31150 7.66313 11.11880 24.05050 -11.85570 11.33390 -14.27230 28.47330 27.61360 1.65628 3.47667 -0.19730 -15.94680 -19.93300 -4.92063 -18.78400 -7.13724 1.77880 4.15507 45.22400 -1.01732 17.07220 -20.22160 1.68044 7.24358 23.55780 -20.42820 
26.79830 94.35440 -23.52860 -8.38860 -7.30610 -41.95820 3.94780 5.57888 1.59246 6.30139 11.37020 3.24886 -6.20817 -1.02004 12.38040 0.00000 0.00000 0.00000 -58.69680 -20.59110 -53.78160 4.85600 0.66939 -50.33520 36.57050 8.81623 0.92887 8.46563 0.88314 4.50977 55.55300 13.19290 91.00070 -0.51692 21.96450 76.59050 -9.31715 8.89444 9.19673 24.11910 -11.88930 11.40320 -14.35020 29.04020 27.95360 1.51209 3.68194 -0.18721 -16.65300 -20.73100 -5.19165 -19.00730 -6.58509 1.79817 2.68088 44.74870 1.28858 17.65080 -19.48870 1.63270 7.14280 23.08980 -21.32670 
26.52860 94.03190 -23.88780 -8.29569 -7.57606 -42.43080 3.75838 5.59312 1.74039 6.27675 11.38000 3.47911 -5.86617 -0.71837 12.23450 0.00000 0.00000 0.00000 -57.94480 -19.70420 -53.57150 4.76990 -0.43744 -48.81190 36.23630 8.65881 0.39801 7.57941 0.81351 4.32676 51.12980 13.45190 93.03360 -2.23049 23.07640 77.46520 0.11552 9.98698 7.54174 24.25010 -11.99190 11.43590 -14.44870 29.67120 28.33110 1.34276 3.85941 -0.17360 -17.28890 -21.45980 -5.41560 -19.11960 -6.09201 1.65588 1.36075 44.21690 3.68599 18.04950 -19.41630 1.66435 6.14396 20.64990 -22.16240 
26.21780 93.69540 -24.31340 -8.19947 -7.82503 -42.86740 3.59498 5.59185 1.85305 6.16882 11.36610 3.67028 -5.45338 -0.38016 12.09920 0.00000 0.00000 0.00000 -57.11660 -19.04130 -53.34040 4.75374 -1.24302 -47.53640 35.92830 8.52889 -0.05207 6.80360 0.75196 4.13734 47.66540 13.44970 94.36900 -2.52585 23.76580 77.94820 7.24534 10.65230 6.60626 24.43700 -12.13260 11.46140 -14.55450 30.27870 28.65800 1.26226 4.01193 -0.16810 -17.77670 -22.08680 -5.49296 -19.14330 -5.71138 1.41021 0.39751 43.78780 5.53995 18.06550 -19.95420 1.75202 4.63336 17.19070 -22.52640 
25.86260 93.36720 -24.80490 -8.09876 -8.04640 -43.23800 3.48148 5.58025 1.91938 5.98905 11.34200 3.80922 -5.03177 -0.08290 11.94250 0.00000 0.00000 0.00000 -56.27240 -18.64950 -53.09770 4.81659 -1.67502 -46.61090 35.69900 8.44823 -0.34098 6.30182 0.70936 3.97235 45.40670 13.41160 94.84830 -1.57088 24.00150 77.87770 10.29110 10.91700 6.36030 24.67620 -12.27260 11.49080 -14.66650 30.75790 28.89230 1.39177 4.18669 -0.18443 -18.13630 -22.65700 -5.40779 -19.08420 -5.48888 1.12740 -0.12710 43.61500 6.47167 17.65770 -20.97340 1.86555 3.28584 14.13280 -22.31720 
